<?xml version="1.0" encoding="UTF-8"?>
<svg id="Layer_2" data-name="Layer 2" xmlns="http://www.w3.org/2000/svg" viewBox="0 0 210.87 202.13">
  <defs>
    <style>
      .cls-1 {
        fill: #fff;
        stroke: #231f20;
        stroke-miterlimit: 10;
        stroke-width: 4px;
      }
    </style>
  </defs>
  <g id="play">
    <g id="drums">
      <path class="cls-1" d="m80.79,189.63c-2.22,2.94-4.35,5.78-6.51,8.6-1.58,2.07-3.09,2.43-4.54,1.13-1.37-1.23-1.3-3.02.22-5.05,2.04-2.72,4.09-5.43,6.3-8.36-7.72-7.26-12.84-16.23-15.13-27.21-4.06,0-8.07,0-12.08,0-5.33,0-5.57-.27-5.58-6.13,0-3.83-.02-7.66-.04-11.49,0-.16-.07-.32-.17-.76-2.24-.36-4.57-.8-6.91-1.09-4.59-.57-7.56-3-8.33-6.95-.79-4.05.89-7.19,5.07-9.86.59-.38,1.08-1.36,1.18-2.13,1.18-8.64,2.26-17.29,3.4-25.93.19-1.44-.15-2.39-1.24-3.39-2.52-2.3-3.23-6.1-2.04-9.34,1.23-3.34,4-5.59,7.38-5.3,4.67.39,9.32,1.19,14.06,1.82.1-5.42,2.07-9.14,7.42-9.99.45-.07.94-.79,1.16-1.33.66-1.59,1.15-3.26,1.81-4.86,1.09-2.66,1.9-4.93,0-7.94-1.79-2.84-.95-6.32,1.27-8.98,2.16-2.58,5.03-3.62,8-2.44,8.53,3.41,17.02,6.96,25.38,10.83,1.9.88,3.19,3.29,4.72,4.96.95-3.86,4.37-5.31,7.92-6.75,6.78-2.75,13.49-5.72,20.25-8.56,3.95-1.66,7.47-.74,9.79,2.49,2.31,3.21,2.22,6.69-.15,10.63-.34.57-.44,1.54-.26,2.2.44,1.59,1.18,3.07,1.67,4.64.88,2.84,1.76,5.17,5.14,5.99,3.02.74,4.56,3.78,4.67,7.29.12,3.61-1.3,6.5-4.33,7.87-8.4,3.77-16.87,7.39-25.39,10.8-2.75,1.1-5.57.29-7.7-2.05-2.15-2.36-3.01-5.18-2.05-8.47.14-.47.23-.95.4-1.63h-6.29v17.01c4.74,1.3,9.47,2.61,14.22,3.92.07-.87.06-1.96.27-3,.89-4.22,3.91-6.76,8.32-6.78,14-.05,28-.04,42,0,4.17.01,7.2,2.25,8.29,5.89,1.15,3.86-.13,7.28-3.65,10.13-.5.41-.95,1.28-.96,1.95-.09,3.75-.1,7.5,0,11.24.02.66.53,1.5,1.04,1.91,3.41,2.72,4.67,6.09,3.59,9.93-1.03,3.66-4.12,5.98-8.18,6.06-2.24.05-4.48,0-7.08,0,0,2.32-.14,4.55.04,6.75.21,2.57-.77,4.15-2.7,5.55-5.32,3.86-10.53,7.89-15.75,11.9-.66.51-1.3,1.18-1.7,1.92-1.84,3.36-3.35,6.95-5.43,10.12-2.04,3.1-4.63,5.78-7.15,8.86,1.91,2.54,3.99,5.29,6.06,8.05,1.49,2,1.55,3.85.18,5.06-1.45,1.29-2.91.93-4.53-1.18-2.16-2.81-4.28-5.65-6.43-8.49-16.32,10.17-32.51,10.14-48.93-.08Zm-14.88-41.13c-.06,23.59,17.52,42.71,39.31,42.77,21.71.05,39.63-19.2,39.61-42.55-.02-23.23-17.69-42.37-39.18-42.45-21.96-.08-39.68,18.75-39.74,42.24Zm14.75-49.23c-12.44-1.87-24.75-3.72-37.2-5.59-1.2,9.24-2.36,18.1-3.5,26.97-.07.56,0,1.13,0,1.66.33.17.53.34.74.37,7.78,1.19,15.56,2.41,23.36,3.48.62.08,1.52-.74,2.01-1.38,2.71-3.61,4.81-8,8.1-10.77,4.57-3.86,6.54-8.4,6.5-14.72Zm54.16,12.09c2.75,3.6,5.55,7.1,8.14,10.78.88,1.25,1.66,1.87,3.17,1.85,7.81-.09,15.62-.04,23.44-.04.74,0,1.48-.07,2.22-.11v-12.48h-36.97Zm2.73-51.49c-6.43,2.74-12.56,5.35-18.77,8,1.29,3.47,2.47,6.66,3.7,9.97,6.39-2.71,12.52-5.32,18.74-7.97-1.25-3.42-2.41-6.56-3.67-10Zm-45.7,7.97c-6.41-2.72-12.53-5.32-18.78-7.97-1.24,3.43-2.41,6.63-3.62,10,6.4,2.72,12.51,5.31,18.74,7.96,1.24-3.38,2.39-6.53,3.66-9.99Zm61.39,32.37c-6.96,0-13.91.02-20.87-.02-1.67-.01-3.09.4-3.08,2.44,0,2.07,1.52,2.4,3.14,2.39,13.84-.01,27.67,0,41.51,0,1.59,0,3.08-.27,3.05-2.45-.03-2.18-1.51-2.37-3.11-2.36-6.88.02-13.76,0-20.64,0Zm-67.32,3.97c5.85-1.55,11.57-3.06,17.42-4.61v-16.7h-8.12c1.09,6.15-1.25,12.52-6.37,15.42-2.73,1.55-2.83,3.62-2.92,5.88Zm-6.9-11.33l.02-.53c-5.37-2.26-10.73-4.53-16.11-6.77-.42-.18-.9-.19-1.36-.26-6.18-.94-12.37-1.84-18.55-2.83-1.65-.27-3.12-.07-3.44,1.87-.36,2.16,1.09,2.78,2.82,3.03,7.33,1.08,14.65,2.24,21.98,3.35,4.87.73,9.75,1.42,14.63,2.13Zm15.8-16.49h20.94c-.74-2.08-1.34-3.94-2.07-5.75-.18-.46-.71-1-1.13-1.06-3.7-.5-5.9-2.92-7.29-6.8-1.26,3.87-3.4,6.16-6.96,6.74-.49.08-1.11.6-1.32,1.09-.77,1.79-1.39,3.65-2.17,5.76Zm-6.69,13.18c.55-.53,1.76-1.18,1.78-1.87.03-1-.57-2.63-1.3-2.95-7.91-3.54-15.88-6.91-23.87-10.2-.68-.28-1.85.13-2.47.65-.45.38-.71,1.7-.44,2.21.45.83,1.32,1.59,2.17,1.96,7.37,3.21,14.77,6.33,22.16,9.47.5.21,1.02.38,1.97.73Zm34.38.03c1.1-.44,1.82-.71,2.54-1.01,6.8-2.89,13.6-5.78,20.4-8.67.79-.33,1.8-.48,2.29-1.09.61-.76,1.32-2.25,1.02-2.82-.44-.82-1.74-1.15-2.72-1.55-.27-.11-.71.25-1.06.4-7.37,3.14-14.74,6.27-22.11,9.41-.5.21-1.23.34-1.42.74-.41.87-.85,1.98-.67,2.84.16.73,1.19,1.23,1.74,1.75Zm-9.65-25.94c1.03-.36,1.7-.55,2.33-.82,7.3-3.1,14.59-6.23,21.9-9.29,1.62-.68,2.91-1.58,2.18-3.62-.76-2.13-2.34-1.63-3.88-.97-6.86,2.95-13.73,5.86-20.59,8.79-.93.4-2.05.6-2.71,1.29-.6.63-1.03,1.87-.91,2.74.1.72,1.12,1.29,1.67,1.86Zm-15.19,0c.54-.58,1.71-1.26,1.71-1.94,0-1-.61-2.53-1.36-2.89-3.7-1.82-7.53-3.34-11.32-4.95-4.08-1.73-8.14-3.52-12.26-5.1-.76-.29-1.98,0-2.65.54-.47.38-.72,1.77-.45,2.38.35.77,1.27,1.41,2.07,1.76,7.42,3.21,14.86,6.35,22.31,9.51.5.21,1.01.36,1.96.7Zm-34.83,68.54c-3.79-.57-7.29-1.1-10.79-1.63-5.12-.77-10.23-1.54-15.35-2.3-1.55-.23-2.92.15-3.13,2.04-.21,1.9,1.08,2.56,2.6,2.81.38.06.76.14,1.14.2,5.27.8,10.54,1.6,15.81,2.38,2.8.41,5.6.78,8.41,1.17.45-1.62.83-2.96,1.31-4.68Zm84.27-1.99c.43,1.44.65,2.6,1.14,3.6.26.53.98,1.12,1.5,1.12,8.28.07,16.55.05,24.83.04,1.44,0,2.41-.71,2.41-2.37,0-1.65-.93-2.38-2.39-2.38-9.04,0-18.08,0-27.49,0Zm3.08,11.11v15.48c3.59-2.72,7.05-5.31,10.47-7.96.39-.3.8-.88.82-1.34.09-2.04.04-4.08.04-6.17h-11.33Zm-89.94,11.25v-9.68c-3.72-.56-7.27-1.09-10.86-1.62v11.3h10.86Z"/>
      <path class="cls-1" d="m19.67,50.02c-4.63,1.84-8.87,3.57-13.13,5.2-.84.32-2,.73-2.63.36-.87-.52-1.93-1.76-1.9-2.66.03-1.04.95-2.56,1.83-2.97,4.12-1.88,8.36-3.44,12.55-5.11,4.77-1.9,9.57-3.74,14.3-5.77.93-.4,1.87-1.42,2.29-2.41,1.36-3.14,2.47-6.4,3.64-9.51-5.13-2.85-10.17-5.52-15.09-8.45-2.21-1.32-4.22-3.07-6.21-4.78-1.01-.87-1.89-1.99-2.61-3.16-2.36-3.83-.88-7.49,3.33-8.37,4.77-.99,9.4.07,13.97,1.31,4.55,1.24,9.02,2.77,13.67,4.22,1.3-1.94,1.54-6.06,5.13-4.21,2.91,1.5.98,4.16.36,6.63.64.34,1.31.67,1.95,1.04,5.42,3.17,10.91,6.22,16.2,9.61,1.87,1.2,3.52,3.05,4.83,4.95,2.48,3.6,1.15,7.28-2.89,8.42-4.34,1.22-8.63.19-12.82-.86-4.79-1.2-9.51-2.78-14.49-4.26-1.31,3.46-2.73,6.94-3.93,10.51-.82,2.47-2.13,4.05-4.55,4.77-2.29.68-4.52,1.68-6.7,2.73-.59.28-.98,1.2-1.31,1.91-.18.4-.04.98-.04,1.48,0,33.4.02,66.8-.04,100.2,0,2.1.59,3.57,1.89,5.06,4.41,5.02,8.72,10.15,13.04,15.26,1.75,2.07,1.87,3.6.53,5-1.4,1.46-2.92,1.18-4.75-.95-3.39-3.96-6.76-7.94-10.5-12.32-.08,1.31-.17,2.08-.17,2.86-.01,5.41.01,10.83-.02,16.24-.01,2.78-1.08,4.27-2.92,4.23-1.84-.03-2.82-1.5-2.83-4.33-.02-5.33,0-10.66,0-15.99,0-.8,0-1.6,0-3.15-3.15,3.67-5.85,6.81-8.54,9.95-.73.86-1.44,1.74-2.18,2.59-1.74,2-3.2,2.3-4.59.98-1.42-1.34-1.35-2.98.34-4.98,3.69-4.38,7.22-8.95,11.18-13.02,3-3.07,3.9-6.38,3.88-10.76-.16-31.4-.09-62.8-.09-94.2v-3.3Zm47.22-20.87C61.7,20.81,27.04,6.25,17.7,8.65c15.01,11.29,31.07,17.98,49.2,20.5Z"/>
      <path class="cls-1" d="m193.04,54.75v2.71c0,29.23-.02,58.45.06,87.68,0,1.4.62,3.08,1.48,4.15,3.8,4.72,7.77,9.27,11.71,13.86,1.26,1.47,1.71,3,.34,4.63-1.21,1.44-2.88,1.29-4.41-.46-2.91-3.33-5.77-6.72-8.92-10.4-.11.92-.24,1.51-.25,2.1-.02,4.58.01,9.16-.02,13.74-.02,2.69-.98,3.99-2.83,4.02-1.88.03-2.89-1.27-2.91-3.93-.04-4.33,0-8.66-.02-12.99,0-.8-.07-1.6-.1-2.4-.22-.18-.43-.36-.65-.54-.35.61-.63,1.29-1.07,1.82-2.23,2.66-4.49,5.28-6.75,7.91-1.98,2.3-3.48,2.68-4.9,1.27-1.47-1.46-1.25-3.01.76-5.36,3.82-4.48,7.68-8.91,11.4-13.48.73-.89,1.26-2.32,1.27-3.5.07-30.31.04-60.62.09-90.93,0-1.83-.5-2.82-2.14-3.13-6.03-1.15-9.58-5.01-10.93-11.39-.28-1.33-.95-2.57-1.39-3.72-5.24,1.44-10.19,3-15.23,4.08-2.6.56-5.4.59-8.04.27-4.56-.55-6.09-4.58-3.19-8.43,1.58-2.09,3.57-3.99,5.71-5.39,4.47-2.92,9.17-5.44,13.98-8.25-.3-1.93-2.17-4.73,1.14-5.98,2.83-1.07,3.38,1.71,4.38,3.88,3.01-.99,5.96-2.18,9.01-2.89,4.13-.97,8.31-1.79,12.51-2.23,2.62-.28,5.52.17,6.7,3.28,1.23,3.25-.76,5.58-2.8,7.57-4.82,4.7-10.67,7.57-16.51,10.42-.75.37-1.51.74-2.44,1.19,1.17,3.1,2.2,6.04,3.43,8.88.29.68,1.2,1.2,1.93,1.49,7.14,2.89,14.31,5.72,21.47,8.58.72.29,1.46.55,2.14.93,1.48.82,2.3,2.06,1.57,3.86-.68,1.65-1.91,2.37-3.59,1.72-3.19-1.23-6.38-2.5-9.57-3.74-.71-.28-1.43-.54-2.4-.9Zm.03-37.07c-14.97,1.86-28.59,7.47-40.77,17.04,14.98-1.82,28.58-7.48,40.77-17.04Z"/>
    </g>
  </g>
</svg>