<?xml version="1.0" encoding="UTF-8"?>
<svg id="Layer_2" data-name="Layer 2" xmlns="http://www.w3.org/2000/svg" viewBox="0 0 164.23 148.56">
  <defs>
    <style>
      .cls-1 {
        fill: #fff;
        stroke: #231f20;
        stroke-miterlimit: 10;
        stroke-width: 3px;
      }
    </style>
  </defs>
  <g id="play">
    <g id="guitar">
      <path class="cls-1" d="m1.82,89.77c.45-1.38.84-2.8,1.41-4.13,3.36-7.77,9.37-12.58,17.38-14.73,3.95-1.06,7.77-2.02,11.85-2.58,7.54-1.03,13.72-3.93,18.04-10.3,2.22-3.27,4.99-6.2,7.78-9.02,4.22-4.25,9.33-5.36,15.15-3.79,4.3,1.17,8.2,3,11.75,5.64,1.41,1.05,1.46,3.15.1,4.28-1.65,1.37-3.28,2.72-4.91,4.07-4.75,3.95-9.48,7.94-14.28,11.84-1.08.88-2.43,1.34-3.82,1.39-7.39.27-13.61,5.65-14.45,12.73-.96,8.12,3.87,15.09,11.67,16.83,8.48,1.89,16.71-3.73,18.1-12.31.09-.59.39-1.28.82-1.65,7.45-6.25,14.94-12.46,22.43-18.68.07-.06.18-.08.39-.18,2.67,4.71,4.61,9.65,5.03,15.11.49,6.35-1.71,11.47-7.14,14.95-3.09,1.98-6.18,4.15-9.57,5.47-6.77,2.64-10.28,7.82-12.6,14.47-1.25,3.57-2.84,6.88-4.34,10.34-2.7,6.2-6.05,12.41-12.27,15.62-3.1,1.59-6.86,1.64-10.35,1.77-.13,0-.26.03-.39.07-.31.08-.64.11-.96.09l-4.14-.38c-.31-.03-.64-.07-.9-.24-.02,0-.03-.02-.05-.02-5.27-1.31-9.76-4.17-14.15-7.19-6.2-4.26-11.04-9.88-15.56-15.81-4.67-6.14-8.88-12.54-11-20.05-.71-2.53-.88-5.26-1.32-7.87.15-1.96.16-3.76.31-5.72Zm27.39,9.82c-.97-1.14-2.75-1.22-3.83-.18-.07.07-.14.14-.2.22-.76.92-.31,1.89.37,2.71,5.25,6.33,10.5,12.67,15.77,18.98,1.07,1.28,2.47,1.42,3.53.48,1-.89,1.02-2.17-.04-3.44-5.18-6.26-10.37-12.51-15.58-18.74,0,0,0-.01-.01-.02Z"/>
      <path class="cls-1" d="m161.55,25.63q-1.57,1.06-4.24-1.36c-1.14,1-2.3,2.01-3.49,3.05.32,1.24,2.92,2.3.82,3.89-1.77,1.34-2.31-1-3.42-1.68-.07,0-.21-.02-.25.03-1.5,1.87-3.5,1.28-5.47,1.27-2.3-.01-3.85-.87-5.21-2.72-1.97-2.69-4.26-5.15-6.35-7.76-.38-.48-.55-1.23-.57-1.86-.04-.94.18-1.89.22-2.83.08-1.83.19-3.63,2.28-4.43-.42-1.45-2.96-2.56-.93-4.11,1.73-1.33,2.33.96,3.51,1.75,1.08-1.02,2.2-2.07,3.46-3.26-.38-1.07-3.02-2.29-.41-4.04.5.05.99.09,1.49.14.53.7,1.05,1.4,1.66,2.2.76-.74,1.34-1.31,1.92-1.87,2.39.22,4.77.44,7.16.65.22.37.39.77.66,1.1,2.11,2.56,4.23,5.12,6.38,7.66.59.7,1.27,1.33,1.91,1.99l-.63,6.86c-.75.55-1.49,1.09-2.26,1.65.76,1.03,1.32,1.78,1.88,2.53l-.11,1.19Z"/>
      <path class="cls-1" d="m74.85,84.93c-1.34-3.88-3.79-6.9-7.36-8.89,20.99-17.44,41.91-34.81,62.7-52.09,2.34,2.79,4.84,5.8,7.23,8.65-20.71,17.32-41.61,34.8-62.58,52.34Z"/>
      <path class="cls-1" d="m63.82,77.14c5.74.54,9.86,5.52,9.31,11.26-.54,5.6-5.61,9.78-11.22,9.26-5.67-.52-9.87-5.63-9.32-11.32.54-5.62,5.56-9.73,11.23-9.2Z"/>
    </g>
  </g>
</svg>