<?xml version="1.0" encoding="UTF-8"?>
<svg id="Layer_2" data-name="Layer 2" xmlns="http://www.w3.org/2000/svg" viewBox="0 0 205.5 167.79">
  <defs>
    <style>
      .cls-1 {
        fill: #fff;
        stroke: #231f20;
        stroke-miterlimit: 10;
        stroke-width: 4px;
      }
    </style>
  </defs>
  <g id="play">
    <g id="mute">
      <path class="cls-1" d="m76.13,6.41l-38.71,38.71c-2.33-4.5-7.03-7.58-12.44-7.58h-8.96c-7.74,0-14.02,6.28-14.02,14.02v66.96c0,7.74,6.28,14.02,14.02,14.02h8.96c5.31,0,9.93-2.95,12.31-7.3l36.45,36.45c8.94,8.94,24.56,2.27,24.76-10.57l2.08-134.9c.2-12.84-15.23-19.03-24.44-9.81Z"/>
      <path class="cls-1" d="m173.27,83.54l27.08-27.08c4.2-4.2,4.2-11.02,0-15.22-4.2-4.2-11.02-4.2-15.22,0l-27.08,27.08-26.18-26.18c-4.2-4.2-11.02-4.2-15.22,0-4.2,4.2-4.2,11.02,0,15.22l26.18,26.18-26.18,26.18c-4.2,4.2-4.2,11.02,0,15.22h0c4.2,4.2,11.02,4.2,15.22,0l26.18-26.18,27.08,27.08c4.2,4.2,11.02,4.2,15.22,0h0c4.2-4.2,4.2-11.02,0-15.22l-27.08-27.08Z"/>
    </g>
  </g>
</svg>