<?xml version="1.0" encoding="UTF-8"?>
<svg id="Layer_2" data-name="Layer 2" xmlns="http://www.w3.org/2000/svg" viewBox="0 0 116 116">
  <defs>
    <style>
      .cls-1 {
        stroke-width: 4px;
      }

      .cls-1, .cls-2, .cls-3 {
        fill: #fff;
        stroke: #231f20;
        stroke-miterlimit: 10;
      }

      .cls-2 {
        stroke-width: 4.73px;
      }

      .cls-3 {
        stroke-width: 4.44px;
      }
    </style>
  </defs>
  <g id="play">
    <g>
      <path class="cls-1" d="m95.59,2.02c-.12,0-.23-.02-.35-.02H20.76C10.4,2,2,10.4,2,20.76v74.49c0,10.36,8.4,18.76,18.76,18.76h74.49c10.36,0,18.76-8.4,18.76-18.76V20.76c0-.44-.04-.87-.07-1.31L95.59,2.02Z"/>
      <path class="cls-2" d="m40,4h49v21c0,3.86-3.14,7-7,7h-35c-3.86,0-7-3.14-7-7V4h0Z"/>
      <rect class="cls-2" x="76.5" y="8.5" width="4" height="13"/>
      <path class="cls-3" d="m27.87,48.5h58.26c5.17,0,9.37,4.2,9.37,9.37v55.63H18.5v-55.63c0-5.17,4.2-9.37,9.37-9.37Z"/>
      <line class="cls-3" x1="28" y1="65" x2="86" y2="65"/>
      <line class="cls-3" x1="28" y1="78" x2="86" y2="78"/>
      <line class="cls-3" x1="28" y1="91" x2="86" y2="91"/>
    </g>
  </g>
</svg>