<?xml version="1.0" encoding="UTF-8"?>
<svg id="Layer_2" data-name="Layer 2" xmlns="http://www.w3.org/2000/svg" viewBox="0 0 231.59 170.75">
  <defs>
    <style>
      .cls-1 {
        fill: #fff;
        stroke: #231f20;
        stroke-miterlimit: 10;
        stroke-width: 4px;
      }
    </style>
  </defs>
  <g id="play">
    <g>
      <path class="cls-1" d="m76.13,9.37l-38.71,38.71c-2.33-4.5-7.03-7.58-12.44-7.58h-8.96c-7.74,0-14.02,6.28-14.02,14.02v66.96c0,7.74,6.28,14.02,14.02,14.02h8.96c5.31,0,9.93-2.95,12.31-7.3l36.45,36.45c8.94,8.94,24.56,2.27,24.76-10.57l2.08-134.9c.2-12.84-15.23-19.03-24.44-9.81Z"/>
      <path class="cls-1" d="m111.5,27.85v1.26c0,3.74,2.8,6.83,6.51,7.32,23.99,3.18,42.49,23.72,42.49,48.57s-18.51,45.39-42.49,48.57c-3.7.49-6.51,3.58-6.51,7.32v1.26c0,4.42,3.86,7.89,8.25,7.33,32.01-4.05,56.75-31.38,56.75-64.48s-24.75-60.43-56.75-64.48c-4.38-.55-8.25,2.91-8.25,7.33Z"/>
      <path class="cls-1" d="m146,11.5v1.62c0,4.81,3.6,8.78,8.37,9.42,30.85,4.09,54.65,30.5,54.65,62.46s-23.8,58.37-54.65,62.46c-4.76.63-8.37,4.61-8.37,9.42v1.62c0,5.68,4.97,10.14,10.6,9.43,41.16-5.21,72.99-40.35,72.99-82.92S197.76,7.29,156.6,2.08c-5.64-.71-10.6,3.75-10.6,9.43Z"/>
    </g>
  </g>
</svg>